G75*
%MOIN*%
%OFA0B0*%
%FSLAX24Y24*%
%IPPOS*%
%LPD*%
%AMOC8*
5,1,8,0,0,1.08239X$1,22.5*
%
%ADD10C,0.0060*%
%ADD11C,0.0520*%
%ADD12C,0.0600*%
%ADD13OC8,0.0600*%
%ADD14C,0.0740*%
%ADD15C,0.0660*%
%ADD16OC8,0.0630*%
%ADD17C,0.0160*%
%ADD18R,0.0531X0.0531*%
D10*
X032131Y002130D02*
X032131Y002771D01*
X032131Y002450D02*
X032558Y002450D01*
X032776Y002344D02*
X032776Y002237D01*
X032882Y002130D01*
X033096Y002130D01*
X033203Y002237D01*
X033420Y002237D02*
X033527Y002130D01*
X033740Y002130D01*
X033847Y002237D01*
X033847Y002771D01*
X034065Y002771D02*
X034065Y002664D01*
X034278Y002450D01*
X034278Y002130D01*
X034278Y002450D02*
X034492Y002664D01*
X034492Y002771D01*
X034709Y002771D02*
X035136Y002771D01*
X034923Y002771D02*
X034923Y002130D01*
X035354Y002130D02*
X035354Y002557D01*
X035567Y002771D01*
X035781Y002557D01*
X035781Y002130D01*
X035998Y002130D02*
X036212Y002344D01*
X036105Y002344D02*
X036425Y002344D01*
X036425Y002130D02*
X036425Y002771D01*
X036105Y002771D01*
X035998Y002664D01*
X035998Y002450D01*
X036105Y002344D01*
X035781Y002450D02*
X035354Y002450D01*
X036643Y002450D02*
X036750Y002344D01*
X037070Y002344D01*
X037070Y002130D02*
X037070Y002771D01*
X036750Y002771D01*
X036643Y002664D01*
X036643Y002450D01*
X033420Y002237D02*
X033420Y002771D01*
X033203Y002664D02*
X033203Y002557D01*
X033096Y002450D01*
X032882Y002450D01*
X032776Y002344D01*
X032558Y002130D02*
X032558Y002771D01*
X032776Y002664D02*
X032882Y002771D01*
X033096Y002771D01*
X033203Y002664D01*
D11*
X034340Y010600D02*
X034860Y010600D01*
X034860Y011600D02*
X034340Y011600D01*
X034340Y012600D02*
X034860Y012600D01*
X034860Y013600D02*
X034340Y013600D01*
X034340Y014600D02*
X034860Y014600D01*
X034860Y015600D02*
X034340Y015600D01*
X034340Y016600D02*
X034860Y016600D01*
X034860Y017600D02*
X034340Y017600D01*
X034340Y018600D02*
X034860Y018600D01*
X034860Y019600D02*
X034340Y019600D01*
X034340Y020600D02*
X034860Y020600D01*
X034860Y021600D02*
X034340Y021600D01*
X034340Y022600D02*
X034860Y022600D01*
X034860Y023600D02*
X034340Y023600D01*
X031860Y023600D02*
X031340Y023600D01*
X031340Y022600D02*
X031860Y022600D01*
X031860Y021600D02*
X031340Y021600D01*
X031340Y020600D02*
X031860Y020600D01*
X031860Y019600D02*
X031340Y019600D01*
X031340Y018600D02*
X031860Y018600D01*
X031860Y017600D02*
X031340Y017600D01*
X031340Y016600D02*
X031860Y016600D01*
X031860Y015600D02*
X031340Y015600D01*
X031340Y014600D02*
X031860Y014600D01*
X031860Y013600D02*
X031340Y013600D01*
X031340Y012600D02*
X031860Y012600D01*
X031860Y011600D02*
X031340Y011600D01*
X031340Y010600D02*
X031860Y010600D01*
D12*
X020400Y015600D02*
X019800Y015600D01*
X019800Y016600D02*
X020400Y016600D01*
X020100Y019300D02*
X020100Y019900D01*
X019100Y019900D02*
X019100Y019300D01*
X018100Y019300D02*
X018100Y019900D01*
X008400Y020100D02*
X007800Y020100D01*
X007800Y019100D02*
X008400Y019100D01*
X008400Y018100D02*
X007800Y018100D01*
X007800Y017100D02*
X008400Y017100D01*
X008400Y016100D02*
X007800Y016100D01*
X007800Y015100D02*
X008400Y015100D01*
X008400Y014100D02*
X007800Y014100D01*
X007800Y013100D02*
X008400Y013100D01*
X008400Y012100D02*
X007800Y012100D01*
X007800Y011100D02*
X008400Y011100D01*
X008400Y010100D02*
X007800Y010100D01*
X007800Y009100D02*
X008400Y009100D01*
X008400Y008100D02*
X007800Y008100D01*
X007800Y007100D02*
X008400Y007100D01*
X008400Y006100D02*
X007800Y006100D01*
X018300Y008100D02*
X018900Y008100D01*
X018900Y009100D02*
X018300Y009100D01*
X018300Y010100D02*
X018900Y010100D01*
X008400Y021100D02*
X007800Y021100D01*
X007800Y022100D02*
X008400Y022100D01*
X008400Y023100D02*
X007800Y023100D01*
X007800Y024100D02*
X008400Y024100D01*
X008400Y025100D02*
X007800Y025100D01*
D13*
X018600Y024600D03*
X018600Y025600D03*
X018600Y026600D03*
X019600Y026600D03*
X019600Y025600D03*
X019600Y024600D03*
X038100Y016600D03*
D14*
X025100Y014100D03*
X024100Y014100D03*
X023100Y014100D03*
D15*
X013100Y023616D03*
X013100Y025584D03*
D16*
X013600Y016600D03*
X011600Y016600D03*
X015600Y012600D03*
X015600Y010600D03*
X011100Y010100D03*
X011100Y008100D03*
D17*
X002600Y003600D02*
X002600Y026600D01*
X010100Y026600D01*
X013100Y025584D01*
X013100Y028100D01*
X019600Y028100D01*
X019600Y026600D01*
X025100Y026600D01*
X025100Y017600D01*
X031600Y017600D01*
X031600Y016600D02*
X033100Y016600D01*
X034600Y017600D01*
X034600Y015600D02*
X037600Y015600D01*
X037600Y003600D01*
X002600Y003600D01*
X003100Y004100D02*
X003100Y019100D01*
X008100Y019100D01*
X012600Y021600D01*
X015100Y023100D01*
X015100Y025600D01*
X018600Y025600D01*
X018600Y024600D02*
X018600Y023600D01*
X021600Y023600D01*
X019600Y024600D02*
X024600Y024600D01*
X024600Y021600D01*
X017100Y021600D01*
X015600Y016600D01*
X013600Y016600D01*
X013600Y013600D01*
X012600Y012100D01*
X011100Y010100D01*
X011100Y008100D02*
X014100Y008100D01*
X014100Y005100D01*
X027100Y005100D01*
X027100Y012600D01*
X021600Y012600D01*
X021600Y016100D01*
X023600Y016100D01*
X023600Y021100D01*
X018100Y021100D01*
X018100Y019600D01*
X017600Y016600D02*
X020100Y016600D01*
X017600Y016600D02*
X015600Y012600D01*
X018600Y012600D01*
X018600Y010100D01*
X018600Y009100D02*
X016600Y008600D01*
X014100Y008100D01*
X015600Y012600D02*
X015600Y016600D01*
X008100Y017100D02*
X004100Y017100D01*
X004100Y005100D01*
X036100Y005100D01*
X036100Y012600D01*
X034600Y012600D01*
X034600Y013600D02*
X036600Y013600D01*
X036600Y004600D01*
X003600Y004600D01*
X003600Y018100D01*
X008100Y018100D01*
X025100Y014100D02*
X029600Y014100D01*
X029600Y015600D01*
X031600Y015600D01*
X034600Y014600D02*
X037100Y014600D01*
X037100Y004100D01*
X003100Y004100D01*
D18*
X021600Y023600D03*
M02*
