%
M48
M72
T01C0.0300
T02C0.0315
T03C0.0320
T04C0.0354
T05C0.0400
T06C0.1300
%
T01
X13100Y23616
X13100Y25584
T02
X23100Y14100
X24100Y14100
X25100Y14100
T03
X31600Y13600
X31600Y12600
X31600Y11600
X31600Y10600
X34600Y10600
X34600Y11600
X34600Y12600
X34600Y13600
X34600Y14600
X34600Y15600
X34600Y16600
X34600Y17600
X34600Y18600
X34600Y19600
X34600Y20600
X34600Y21600
X34600Y22600
X34600Y23600
X31600Y23600
X31600Y22600
X31600Y21600
X31600Y20600
X31600Y19600
X31600Y18600
X31600Y17600
X31600Y16600
X31600Y15600
X31600Y14600
X15600Y12600
X15600Y10600
X11100Y10100
X11100Y8100
X11600Y16600
X13600Y16600
T04
X21600Y23600
T05
X8100Y6100
X8100Y7100
X8100Y8100
X8100Y9100
X8100Y10100
X8100Y11100
X8100Y12100
X8100Y13100
X8100Y14100
X8100Y15100
X8100Y16100
X8100Y17100
X8100Y18100
X8100Y19100
X8100Y20100
X8100Y21100
X8100Y22100
X8100Y23100
X8100Y24100
X8100Y25100
X18100Y19600
X19100Y19600
X20100Y19600
X20100Y16600
X20100Y15600
X18600Y10100
X18600Y9100
X18600Y8100
X38100Y16600
X19600Y24600
X19600Y25600
X19600Y26600
X18600Y26600
X18600Y25600
X18600Y24600
T06
X24500Y9100
M30
