G75*
%MOIN*%
%OFA0B0*%
%FSLAX24Y24*%
%IPPOS*%
%LPD*%
%AMOC8*
5,1,8,0,0,1.08239X$1,22.5*
%
%ADD10C,0.0000*%
%ADD11C,0.0520*%
%ADD12C,0.0600*%
%ADD13OC8,0.0600*%
%ADD14C,0.0740*%
%ADD15C,0.0660*%
%ADD16OC8,0.0630*%
%ADD17C,0.0160*%
%ADD18R,0.0531X0.0531*%
D10*
X000100Y000100D02*
X000100Y031596D01*
X039470Y031596D01*
X039470Y000100D01*
X000100Y000100D01*
X023850Y009100D02*
X023852Y009150D01*
X023858Y009200D01*
X023868Y009250D01*
X023881Y009298D01*
X023898Y009346D01*
X023919Y009392D01*
X023943Y009436D01*
X023971Y009478D01*
X024002Y009518D01*
X024036Y009555D01*
X024073Y009590D01*
X024112Y009621D01*
X024153Y009650D01*
X024197Y009675D01*
X024243Y009697D01*
X024290Y009715D01*
X024338Y009729D01*
X024387Y009740D01*
X024437Y009747D01*
X024487Y009750D01*
X024538Y009749D01*
X024588Y009744D01*
X024638Y009735D01*
X024686Y009723D01*
X024734Y009706D01*
X024780Y009686D01*
X024825Y009663D01*
X024868Y009636D01*
X024908Y009606D01*
X024946Y009573D01*
X024981Y009537D01*
X025014Y009498D01*
X025043Y009457D01*
X025069Y009414D01*
X025092Y009369D01*
X025111Y009322D01*
X025126Y009274D01*
X025138Y009225D01*
X025146Y009175D01*
X025150Y009125D01*
X025150Y009075D01*
X025146Y009025D01*
X025138Y008975D01*
X025126Y008926D01*
X025111Y008878D01*
X025092Y008831D01*
X025069Y008786D01*
X025043Y008743D01*
X025014Y008702D01*
X024981Y008663D01*
X024946Y008627D01*
X024908Y008594D01*
X024868Y008564D01*
X024825Y008537D01*
X024780Y008514D01*
X024734Y008494D01*
X024686Y008477D01*
X024638Y008465D01*
X024588Y008456D01*
X024538Y008451D01*
X024487Y008450D01*
X024437Y008453D01*
X024387Y008460D01*
X024338Y008471D01*
X024290Y008485D01*
X024243Y008503D01*
X024197Y008525D01*
X024153Y008550D01*
X024112Y008579D01*
X024073Y008610D01*
X024036Y008645D01*
X024002Y008682D01*
X023971Y008722D01*
X023943Y008764D01*
X023919Y008808D01*
X023898Y008854D01*
X023881Y008902D01*
X023868Y008950D01*
X023858Y009000D01*
X023852Y009050D01*
X023850Y009100D01*
D11*
X031340Y010600D02*
X031860Y010600D01*
X031860Y011600D02*
X031340Y011600D01*
X031340Y012600D02*
X031860Y012600D01*
X031860Y013600D02*
X031340Y013600D01*
X031340Y014600D02*
X031860Y014600D01*
X031860Y015600D02*
X031340Y015600D01*
X031340Y016600D02*
X031860Y016600D01*
X031860Y017600D02*
X031340Y017600D01*
X031340Y018600D02*
X031860Y018600D01*
X031860Y019600D02*
X031340Y019600D01*
X031340Y020600D02*
X031860Y020600D01*
X031860Y021600D02*
X031340Y021600D01*
X031340Y022600D02*
X031860Y022600D01*
X031860Y023600D02*
X031340Y023600D01*
X034340Y023600D02*
X034860Y023600D01*
X034860Y022600D02*
X034340Y022600D01*
X034340Y021600D02*
X034860Y021600D01*
X034860Y020600D02*
X034340Y020600D01*
X034340Y019600D02*
X034860Y019600D01*
X034860Y018600D02*
X034340Y018600D01*
X034340Y017600D02*
X034860Y017600D01*
X034860Y016600D02*
X034340Y016600D01*
X034340Y015600D02*
X034860Y015600D01*
X034860Y014600D02*
X034340Y014600D01*
X034340Y013600D02*
X034860Y013600D01*
X034860Y012600D02*
X034340Y012600D01*
X034340Y011600D02*
X034860Y011600D01*
X034860Y010600D02*
X034340Y010600D01*
D12*
X020400Y015600D02*
X019800Y015600D01*
X019800Y016600D02*
X020400Y016600D01*
X020100Y019300D02*
X020100Y019900D01*
X019100Y019900D02*
X019100Y019300D01*
X018100Y019300D02*
X018100Y019900D01*
X008400Y020100D02*
X007800Y020100D01*
X007800Y019100D02*
X008400Y019100D01*
X008400Y018100D02*
X007800Y018100D01*
X007800Y017100D02*
X008400Y017100D01*
X008400Y016100D02*
X007800Y016100D01*
X007800Y015100D02*
X008400Y015100D01*
X008400Y014100D02*
X007800Y014100D01*
X007800Y013100D02*
X008400Y013100D01*
X008400Y012100D02*
X007800Y012100D01*
X007800Y011100D02*
X008400Y011100D01*
X008400Y010100D02*
X007800Y010100D01*
X007800Y009100D02*
X008400Y009100D01*
X008400Y008100D02*
X007800Y008100D01*
X007800Y007100D02*
X008400Y007100D01*
X008400Y006100D02*
X007800Y006100D01*
X018300Y008100D02*
X018900Y008100D01*
X018900Y009100D02*
X018300Y009100D01*
X018300Y010100D02*
X018900Y010100D01*
X008400Y021100D02*
X007800Y021100D01*
X007800Y022100D02*
X008400Y022100D01*
X008400Y023100D02*
X007800Y023100D01*
X007800Y024100D02*
X008400Y024100D01*
X008400Y025100D02*
X007800Y025100D01*
D13*
X018600Y024600D03*
X018600Y025600D03*
X018600Y026600D03*
X019600Y026600D03*
X019600Y025600D03*
X019600Y024600D03*
X038100Y016600D03*
D14*
X025100Y014100D03*
X024100Y014100D03*
X023100Y014100D03*
D15*
X013100Y023616D03*
X013100Y025584D03*
D16*
X013600Y016600D03*
X011600Y016600D03*
X015600Y012600D03*
X015600Y010600D03*
X011100Y010100D03*
X011100Y008100D03*
D17*
X008100Y008100D02*
X005100Y008100D01*
X005100Y004600D01*
X027600Y004600D01*
X027600Y020600D01*
X031600Y020600D01*
X031600Y019600D02*
X028100Y019600D01*
X028100Y004100D01*
X004600Y004100D01*
X004600Y009100D01*
X008100Y009100D01*
X008100Y010100D02*
X004100Y010100D01*
X004100Y003600D01*
X028600Y003600D01*
X028600Y018600D01*
X031600Y018600D01*
X034600Y018600D02*
X038600Y018600D01*
X038600Y030100D01*
X001100Y030100D01*
X001100Y020100D01*
X008100Y020100D01*
X008100Y021100D02*
X001600Y021100D01*
X001600Y029600D01*
X038100Y029600D01*
X038100Y019600D01*
X034600Y019600D01*
X034600Y020600D02*
X037600Y020600D01*
X037600Y029100D01*
X002100Y029100D01*
X002100Y022100D01*
X008100Y022100D01*
X008100Y023100D02*
X002600Y023100D01*
X002600Y028600D01*
X037100Y028600D01*
X037100Y021600D01*
X034600Y021600D01*
X034600Y022600D02*
X036600Y022600D01*
X036600Y028100D01*
X003100Y028100D01*
X003100Y024100D01*
X008100Y024100D01*
X008100Y025100D02*
X003600Y025100D01*
X003600Y027600D01*
X036100Y027600D01*
X036100Y023600D01*
X034600Y023600D01*
X031600Y023600D02*
X021600Y023600D01*
X020600Y023100D02*
X016600Y023100D01*
X008100Y017100D01*
X008100Y016100D02*
X001100Y016100D01*
X001100Y000600D01*
X038600Y000600D01*
X038600Y011600D01*
X034600Y011600D01*
X034600Y010600D02*
X038100Y010600D01*
X038100Y001100D01*
X001600Y001100D01*
X001600Y015100D01*
X008100Y015100D01*
X008100Y014100D02*
X002100Y014100D01*
X002100Y001600D01*
X030600Y001600D01*
X030600Y010600D01*
X031600Y010600D01*
X031600Y011600D02*
X030100Y011600D01*
X030100Y002100D01*
X002600Y002100D01*
X002600Y013100D01*
X008100Y013100D01*
X008100Y012100D02*
X003100Y012100D01*
X003100Y002600D01*
X029600Y002600D01*
X029600Y012600D01*
X031600Y012600D01*
X031600Y013600D02*
X029100Y013600D01*
X029100Y003100D01*
X003600Y003100D01*
X003600Y011100D01*
X008100Y011100D01*
X011600Y012600D02*
X015600Y010600D01*
X015600Y008100D01*
X018600Y008100D01*
X015600Y010600D02*
X020100Y012600D01*
X020100Y015600D01*
X020100Y016600D02*
X024100Y016600D01*
X024100Y014100D01*
X023100Y014100D02*
X023100Y012600D01*
X025100Y012600D01*
X025100Y014100D01*
X020100Y016600D02*
X020100Y018100D01*
X019100Y018100D01*
X019100Y019600D01*
X020100Y019600D02*
X020100Y021100D01*
X018100Y021100D01*
X018100Y019600D01*
X020600Y023100D02*
X020600Y025600D01*
X019600Y025600D01*
X018600Y024600D02*
X015600Y023616D01*
X013100Y023616D01*
X009600Y026600D02*
X009600Y019100D01*
X009100Y018600D01*
X008100Y018100D01*
X011600Y016600D02*
X011600Y012600D01*
X008100Y007100D02*
X005600Y007100D01*
X005600Y005100D01*
X027100Y005100D01*
X027100Y021600D01*
X031600Y021600D01*
X031600Y022600D02*
X026600Y022600D01*
X026600Y006100D01*
X008100Y006100D01*
X009600Y026600D02*
X018600Y026600D01*
X034600Y016600D02*
X038100Y016600D01*
D18*
X021600Y023600D03*
M02*
