G75*
%MOIN*%
%OFA0B0*%
%FSLAX24Y24*%
%IPPOS*%
%LPD*%
%AMOC8*
5,1,8,0,0,1.08239X$1,22.5*
%
%ADD10C,0.0060*%
%ADD11C,0.0080*%
%ADD12C,0.0120*%
%ADD13C,0.0020*%
%ADD14C,0.0040*%
%ADD15R,0.0350X0.0500*%
D10*
X007600Y005850D02*
X007850Y005600D01*
X008350Y005600D01*
X008600Y005850D01*
X008600Y006350D01*
X008350Y006600D01*
X008600Y006850D01*
X008600Y007350D01*
X008350Y007600D01*
X007850Y007600D01*
X007600Y007350D01*
X007600Y006850D01*
X007850Y006600D01*
X008350Y006600D01*
X007850Y006600D02*
X007600Y006350D01*
X007600Y005850D01*
X007850Y007600D02*
X007600Y007850D01*
X007600Y008350D01*
X007850Y008600D01*
X007600Y008850D01*
X007600Y009350D01*
X007850Y009600D01*
X007600Y009850D01*
X007600Y010350D01*
X007850Y010600D01*
X008350Y010600D01*
X008600Y010350D01*
X008600Y009850D01*
X008350Y009600D01*
X008600Y009350D01*
X008600Y008850D01*
X008350Y008600D01*
X008600Y008350D01*
X008600Y007850D01*
X008350Y007600D01*
X008350Y008600D02*
X007850Y008600D01*
X007850Y009600D02*
X008350Y009600D01*
X008350Y010600D02*
X008600Y010850D01*
X008600Y011350D01*
X008350Y011600D01*
X008600Y011850D01*
X008600Y012350D01*
X008350Y012600D01*
X008600Y012850D01*
X008600Y013350D01*
X008350Y013600D01*
X007850Y013600D01*
X007600Y013350D01*
X007600Y012850D01*
X007850Y012600D01*
X008350Y012600D01*
X007850Y012600D02*
X007600Y012350D01*
X007600Y011850D01*
X007850Y011600D01*
X008350Y011600D01*
X007850Y011600D02*
X007600Y011350D01*
X007600Y010850D01*
X007850Y010600D01*
X010600Y010450D02*
X010600Y007750D01*
X010602Y007733D01*
X010606Y007716D01*
X010613Y007700D01*
X010623Y007686D01*
X010636Y007673D01*
X010650Y007663D01*
X010666Y007656D01*
X010683Y007652D01*
X010700Y007650D01*
X011500Y007650D01*
X011517Y007652D01*
X011534Y007656D01*
X011550Y007663D01*
X011564Y007673D01*
X011577Y007686D01*
X011587Y007700D01*
X011594Y007716D01*
X011598Y007733D01*
X011600Y007750D01*
X011600Y010450D01*
X011598Y010467D01*
X011594Y010484D01*
X011587Y010500D01*
X011577Y010514D01*
X011564Y010527D01*
X011550Y010537D01*
X011534Y010544D01*
X011517Y010548D01*
X011500Y010550D01*
X010700Y010550D01*
X010683Y010548D01*
X010666Y010544D01*
X010650Y010537D01*
X010636Y010527D01*
X010623Y010514D01*
X010613Y010500D01*
X010606Y010484D01*
X010602Y010467D01*
X010600Y010450D01*
X011100Y009700D02*
X011100Y009230D01*
X011100Y008980D02*
X011100Y008500D01*
X015100Y010250D02*
X015100Y012950D01*
X015102Y012967D01*
X015106Y012984D01*
X015113Y013000D01*
X015123Y013014D01*
X015136Y013027D01*
X015150Y013037D01*
X015166Y013044D01*
X015183Y013048D01*
X015200Y013050D01*
X016000Y013050D01*
X016017Y013048D01*
X016034Y013044D01*
X016050Y013037D01*
X016064Y013027D01*
X016077Y013014D01*
X016087Y013000D01*
X016094Y012984D01*
X016098Y012967D01*
X016100Y012950D01*
X016100Y010250D01*
X016098Y010233D01*
X016094Y010216D01*
X016087Y010200D01*
X016077Y010186D01*
X016064Y010173D01*
X016050Y010163D01*
X016034Y010156D01*
X016017Y010152D01*
X016000Y010150D01*
X015200Y010150D01*
X015183Y010152D01*
X015166Y010156D01*
X015150Y010163D01*
X015136Y010173D01*
X015123Y010186D01*
X015113Y010200D01*
X015106Y010216D01*
X015102Y010233D01*
X015100Y010250D01*
X015600Y011000D02*
X015600Y011480D01*
X015600Y011730D02*
X015600Y012200D01*
X019600Y011150D02*
X024500Y011150D01*
X024500Y010800D01*
X025100Y010800D01*
X025100Y011150D01*
X025850Y011150D01*
X025850Y007050D01*
X025100Y007050D01*
X025100Y007400D01*
X024500Y007400D01*
X024500Y007050D01*
X019600Y007050D01*
X019600Y011150D01*
X019850Y015100D02*
X019600Y015350D01*
X019600Y015850D01*
X019850Y016100D01*
X019600Y016350D01*
X019600Y016850D01*
X019850Y017100D01*
X020350Y017100D01*
X020600Y016850D01*
X020600Y016350D01*
X020350Y016100D01*
X020600Y015850D01*
X020600Y015350D01*
X020350Y015100D01*
X019850Y015100D01*
X019850Y016100D02*
X020350Y016100D01*
X020350Y019100D02*
X019850Y019100D01*
X019600Y019350D01*
X019350Y019100D01*
X018850Y019100D01*
X018600Y019350D01*
X018350Y019100D01*
X017850Y019100D01*
X017600Y019350D01*
X017600Y019850D01*
X017850Y020100D01*
X018350Y020100D01*
X018600Y019850D01*
X018850Y020100D01*
X019350Y020100D01*
X019600Y019850D01*
X019850Y020100D01*
X020350Y020100D01*
X020600Y019850D01*
X020600Y019350D01*
X020350Y019100D01*
X019600Y019350D02*
X019600Y019850D01*
X018600Y019850D02*
X018600Y019350D01*
X014050Y017000D02*
X014050Y016200D01*
X014048Y016183D01*
X014044Y016166D01*
X014037Y016150D01*
X014027Y016136D01*
X014014Y016123D01*
X014000Y016113D01*
X013984Y016106D01*
X013967Y016102D01*
X013950Y016100D01*
X011250Y016100D01*
X011233Y016102D01*
X011216Y016106D01*
X011200Y016113D01*
X011186Y016123D01*
X011173Y016136D01*
X011163Y016150D01*
X011156Y016166D01*
X011152Y016183D01*
X011150Y016200D01*
X011150Y017000D01*
X011152Y017017D01*
X011156Y017034D01*
X011163Y017050D01*
X011173Y017064D01*
X011186Y017077D01*
X011200Y017087D01*
X011216Y017094D01*
X011233Y017098D01*
X011250Y017100D01*
X013950Y017100D01*
X013967Y017098D01*
X013984Y017094D01*
X014000Y017087D01*
X014014Y017077D01*
X014027Y017064D01*
X014037Y017050D01*
X014044Y017034D01*
X014048Y017017D01*
X014050Y017000D01*
X013200Y016600D02*
X012720Y016600D01*
X012470Y016600D02*
X012000Y016600D01*
X008600Y016350D02*
X008600Y015850D01*
X008350Y015600D01*
X008600Y015350D01*
X008600Y014850D01*
X008350Y014600D01*
X008600Y014350D01*
X008600Y013850D01*
X008350Y013600D01*
X007850Y013600D02*
X007600Y013850D01*
X007600Y014350D01*
X007850Y014600D01*
X007600Y014850D01*
X007600Y015350D01*
X007850Y015600D01*
X007600Y015850D01*
X007600Y016350D01*
X007850Y016600D01*
X008350Y016600D01*
X008600Y016350D01*
X008350Y016600D02*
X008600Y016850D01*
X008600Y017350D01*
X008350Y017600D01*
X008600Y017850D01*
X008600Y018350D01*
X008350Y018600D01*
X008600Y018850D01*
X008600Y019350D01*
X008350Y019600D01*
X007850Y019600D01*
X007600Y019350D01*
X007600Y018850D01*
X007850Y018600D01*
X008350Y018600D01*
X007850Y018600D02*
X007600Y018350D01*
X007600Y017850D01*
X007850Y017600D01*
X008350Y017600D01*
X007850Y017600D02*
X007600Y017350D01*
X007600Y016850D01*
X007850Y016600D01*
X007850Y015600D02*
X008350Y015600D01*
X008350Y014600D02*
X007850Y014600D01*
X007850Y019600D02*
X007600Y019850D01*
X007600Y020350D01*
X007850Y020600D01*
X007600Y020850D01*
X007600Y021350D01*
X007850Y021600D01*
X007600Y021850D01*
X007600Y022350D01*
X007850Y022600D01*
X008350Y022600D01*
X008600Y022350D01*
X008600Y021850D01*
X008350Y021600D01*
X008600Y021350D01*
X008600Y020850D01*
X008350Y020600D01*
X008600Y020350D01*
X008600Y019850D01*
X008350Y019600D01*
X008350Y020600D02*
X007850Y020600D01*
X007850Y021600D02*
X008350Y021600D01*
X008350Y022600D02*
X008600Y022850D01*
X008600Y023350D01*
X008350Y023600D01*
X008600Y023850D01*
X008600Y024350D01*
X008350Y024600D01*
X008600Y024850D01*
X008600Y025350D01*
X008350Y025600D01*
X007850Y025600D01*
X007600Y025350D01*
X007600Y024850D01*
X007850Y024600D01*
X008350Y024600D01*
X007850Y024600D02*
X007600Y024350D01*
X007600Y023850D01*
X007850Y023600D01*
X008350Y023600D01*
X007850Y023600D02*
X007600Y023350D01*
X007600Y022850D01*
X007850Y022600D01*
X018100Y024350D02*
X018100Y024850D01*
X018350Y025100D01*
X019850Y025100D01*
X020100Y024850D01*
X020100Y024350D01*
X019850Y024100D01*
X018350Y024100D01*
X018100Y024350D01*
X018350Y025100D02*
X018100Y025350D01*
X018100Y025850D01*
X018350Y026100D01*
X019850Y026100D01*
X020100Y025850D01*
X020100Y025350D01*
X019850Y025100D01*
X019850Y026100D02*
X020100Y026350D01*
X020100Y026850D01*
X019850Y027100D01*
X018350Y027100D01*
X018100Y026850D01*
X018100Y026350D01*
X018350Y026100D01*
X032000Y024400D02*
X032000Y009800D01*
X034200Y009800D01*
X034200Y024400D01*
X033350Y024400D01*
X033348Y024370D01*
X033343Y024340D01*
X033334Y024311D01*
X033321Y024284D01*
X033306Y024258D01*
X033287Y024234D01*
X033266Y024213D01*
X033242Y024194D01*
X033216Y024179D01*
X033189Y024166D01*
X033160Y024157D01*
X033130Y024152D01*
X033100Y024150D01*
X033070Y024152D01*
X033040Y024157D01*
X033011Y024166D01*
X032984Y024179D01*
X032958Y024194D01*
X032934Y024213D01*
X032913Y024234D01*
X032894Y024258D01*
X032879Y024284D01*
X032866Y024311D01*
X032857Y024340D01*
X032852Y024370D01*
X032850Y024400D01*
X032000Y024400D01*
X037850Y017100D02*
X037600Y016850D01*
X037600Y016350D01*
X037850Y016100D01*
X038350Y016100D01*
X038600Y016350D01*
X038600Y016850D01*
X038350Y017100D01*
X037850Y017100D01*
X023790Y009100D02*
X023792Y009153D01*
X023798Y009206D01*
X023808Y009258D01*
X023822Y009309D01*
X023839Y009359D01*
X023860Y009408D01*
X023885Y009455D01*
X023913Y009500D01*
X023945Y009543D01*
X023980Y009583D01*
X024017Y009620D01*
X024057Y009655D01*
X024100Y009687D01*
X024145Y009715D01*
X024192Y009740D01*
X024241Y009761D01*
X024291Y009778D01*
X024342Y009792D01*
X024394Y009802D01*
X024447Y009808D01*
X024500Y009810D01*
X024553Y009808D01*
X024606Y009802D01*
X024658Y009792D01*
X024709Y009778D01*
X024759Y009761D01*
X024808Y009740D01*
X024855Y009715D01*
X024900Y009687D01*
X024943Y009655D01*
X024983Y009620D01*
X025020Y009583D01*
X025055Y009543D01*
X025087Y009500D01*
X025115Y009455D01*
X025140Y009408D01*
X025161Y009359D01*
X025178Y009309D01*
X025192Y009258D01*
X025202Y009206D01*
X025208Y009153D01*
X025210Y009100D01*
X025208Y009047D01*
X025202Y008994D01*
X025192Y008942D01*
X025178Y008891D01*
X025161Y008841D01*
X025140Y008792D01*
X025115Y008745D01*
X025087Y008700D01*
X025055Y008657D01*
X025020Y008617D01*
X024983Y008580D01*
X024943Y008545D01*
X024900Y008513D01*
X024855Y008485D01*
X024808Y008460D01*
X024759Y008439D01*
X024709Y008422D01*
X024658Y008408D01*
X024606Y008398D01*
X024553Y008392D01*
X024500Y008390D01*
X024447Y008392D01*
X024394Y008398D01*
X024342Y008408D01*
X024291Y008422D01*
X024241Y008439D01*
X024192Y008460D01*
X024145Y008485D01*
X024100Y008513D01*
X024057Y008545D01*
X024017Y008580D01*
X023980Y008617D01*
X023945Y008657D01*
X023913Y008700D01*
X023885Y008745D01*
X023860Y008792D01*
X023839Y008841D01*
X023822Y008891D01*
X023808Y008942D01*
X023798Y008994D01*
X023792Y009047D01*
X023790Y009100D01*
D11*
X023200Y014800D02*
X023379Y014818D01*
X023559Y014832D01*
X023739Y014842D01*
X023920Y014848D01*
X024100Y014850D01*
X024280Y014848D01*
X024461Y014842D01*
X024641Y014832D01*
X024821Y014818D01*
X025000Y014800D01*
X025052Y014790D01*
X025103Y014776D01*
X025153Y014758D01*
X025201Y014737D01*
X025248Y014712D01*
X025292Y014684D01*
X025335Y014652D01*
X025375Y014618D01*
X025412Y014580D01*
X025446Y014540D01*
X025478Y014498D01*
X025506Y014453D01*
X025530Y014406D01*
X025551Y014358D01*
X025569Y014308D01*
X025582Y014257D01*
X025592Y014205D01*
X025598Y014153D01*
X025600Y014100D01*
X025598Y014047D01*
X025592Y013995D01*
X025582Y013943D01*
X025569Y013892D01*
X025551Y013842D01*
X025530Y013794D01*
X025506Y013747D01*
X025478Y013702D01*
X025446Y013660D01*
X025412Y013620D01*
X025375Y013582D01*
X025335Y013548D01*
X025292Y013516D01*
X025248Y013488D01*
X025201Y013463D01*
X025153Y013442D01*
X025103Y013424D01*
X025052Y013410D01*
X025000Y013400D01*
X023200Y013400D02*
X023148Y013410D01*
X023097Y013424D01*
X023047Y013442D01*
X022999Y013463D01*
X022952Y013488D01*
X022908Y013516D01*
X022865Y013548D01*
X022825Y013582D01*
X022788Y013620D01*
X022754Y013660D01*
X022722Y013702D01*
X022694Y013747D01*
X022670Y013794D01*
X022649Y013842D01*
X022631Y013892D01*
X022618Y013943D01*
X022608Y013995D01*
X022602Y014047D01*
X022600Y014100D01*
X022602Y014153D01*
X022608Y014205D01*
X022618Y014257D01*
X022631Y014308D01*
X022649Y014358D01*
X022670Y014406D01*
X022694Y014453D01*
X022722Y014498D01*
X022754Y014540D01*
X022788Y014580D01*
X022825Y014618D01*
X022865Y014652D01*
X022908Y014684D01*
X022952Y014712D01*
X022999Y014737D01*
X023047Y014758D01*
X023097Y014776D01*
X023148Y014790D01*
X023200Y014800D01*
X023200Y013400D02*
X023379Y013382D01*
X023559Y013368D01*
X023739Y013358D01*
X023920Y013352D01*
X024100Y013350D01*
X024280Y013352D01*
X024461Y013358D01*
X024641Y013368D01*
X024821Y013382D01*
X025000Y013400D01*
X013435Y023990D02*
X012765Y023990D01*
X012765Y025210D01*
X013435Y025210D01*
X013435Y023990D01*
D12*
X012720Y016850D02*
X012720Y016600D01*
X012720Y016350D01*
X012470Y016350D02*
X012470Y016600D01*
X012470Y016850D01*
X015350Y011730D02*
X015600Y011730D01*
X015850Y011730D01*
X015850Y011480D02*
X015600Y011480D01*
X015350Y011480D01*
X011350Y009230D02*
X011100Y009230D01*
X010850Y009230D01*
X010850Y008980D02*
X011100Y008980D01*
X011350Y008980D01*
D13*
X019850Y007300D02*
X023100Y007300D01*
X023100Y010900D01*
X019850Y010900D01*
X019850Y007300D01*
D14*
X023220Y008593D02*
X023336Y008476D01*
X023570Y008476D01*
X023395Y008476D02*
X023395Y008709D01*
X023336Y008709D02*
X023570Y008709D01*
X023570Y008835D02*
X023570Y009069D01*
X023570Y008952D02*
X023220Y008952D01*
X023336Y008835D01*
X023336Y008709D02*
X023220Y008593D01*
X023220Y009194D02*
X023395Y009194D01*
X023336Y009311D01*
X023336Y009369D01*
X023395Y009428D01*
X023512Y009428D01*
X023570Y009369D01*
X023570Y009253D01*
X023512Y009194D01*
X023220Y009194D02*
X023220Y009428D01*
X023512Y009612D02*
X023570Y009612D01*
X023570Y009670D01*
X023512Y009670D01*
X023512Y009612D01*
X023570Y009670D02*
X023687Y009553D01*
X023570Y009793D02*
X023336Y010026D01*
X023278Y010026D01*
X023220Y009968D01*
X023220Y009851D01*
X023278Y009793D01*
X023570Y009793D02*
X023570Y010026D01*
X023570Y010152D02*
X023336Y010152D01*
X023336Y010210D01*
X023395Y010269D01*
X023336Y010327D01*
X023395Y010385D01*
X023570Y010385D01*
X023570Y010269D02*
X023395Y010269D01*
X023336Y010511D02*
X023336Y010569D01*
X023395Y010628D01*
X023336Y010686D01*
X023395Y010744D01*
X023570Y010744D01*
X023570Y010628D02*
X023395Y010628D01*
X023336Y010511D02*
X023570Y010511D01*
D15*
X019425Y010100D03*
X019425Y009100D03*
X019425Y008100D03*
M02*
