G75*
%MOIN*%
%OFA0B0*%
%FSLAX24Y24*%
%IPPOS*%
%LPD*%
%AMOC8*
5,1,8,0,0,1.08239X$1,22.5*
%
%ADD10C,0.0600*%
%ADD11C,0.0680*%
%ADD12OC8,0.0680*%
%ADD13C,0.0820*%
%ADD14C,0.0740*%
%ADD15OC8,0.0710*%
%ADD16C,0.1380*%
%ADD17R,0.0611X0.0611*%
D10*
X031340Y010600D02*
X031860Y010600D01*
X031860Y011600D02*
X031340Y011600D01*
X031340Y012600D02*
X031860Y012600D01*
X031860Y013600D02*
X031340Y013600D01*
X031340Y014600D02*
X031860Y014600D01*
X031860Y015600D02*
X031340Y015600D01*
X031340Y016600D02*
X031860Y016600D01*
X031860Y017600D02*
X031340Y017600D01*
X031340Y018600D02*
X031860Y018600D01*
X031860Y019600D02*
X031340Y019600D01*
X031340Y020600D02*
X031860Y020600D01*
X031860Y021600D02*
X031340Y021600D01*
X031340Y022600D02*
X031860Y022600D01*
X031860Y023600D02*
X031340Y023600D01*
X034340Y023600D02*
X034860Y023600D01*
X034860Y022600D02*
X034340Y022600D01*
X034340Y021600D02*
X034860Y021600D01*
X034860Y020600D02*
X034340Y020600D01*
X034340Y019600D02*
X034860Y019600D01*
X034860Y018600D02*
X034340Y018600D01*
X034340Y017600D02*
X034860Y017600D01*
X034860Y016600D02*
X034340Y016600D01*
X034340Y015600D02*
X034860Y015600D01*
X034860Y014600D02*
X034340Y014600D01*
X034340Y013600D02*
X034860Y013600D01*
X034860Y012600D02*
X034340Y012600D01*
X034340Y011600D02*
X034860Y011600D01*
X034860Y010600D02*
X034340Y010600D01*
D11*
X008400Y006100D02*
X007800Y006100D01*
X007800Y007100D02*
X008400Y007100D01*
X008400Y008100D02*
X007800Y008100D01*
X007800Y009100D02*
X008400Y009100D01*
X008400Y010100D02*
X007800Y010100D01*
X007800Y011100D02*
X008400Y011100D01*
X008400Y012100D02*
X007800Y012100D01*
X007800Y013100D02*
X008400Y013100D01*
X008400Y014100D02*
X007800Y014100D01*
X007800Y015100D02*
X008400Y015100D01*
X008400Y016100D02*
X007800Y016100D01*
X007800Y017100D02*
X008400Y017100D01*
X008400Y018100D02*
X007800Y018100D01*
X007800Y019100D02*
X008400Y019100D01*
X008400Y020100D02*
X007800Y020100D01*
X007800Y021100D02*
X008400Y021100D01*
X008400Y022100D02*
X007800Y022100D01*
X007800Y023100D02*
X008400Y023100D01*
X008400Y024100D02*
X007800Y024100D01*
X007800Y025100D02*
X008400Y025100D01*
X018100Y019900D02*
X018100Y019300D01*
X019100Y019300D02*
X019100Y019900D01*
X020100Y019900D02*
X020100Y019300D01*
X020400Y016600D02*
X019800Y016600D01*
X019800Y015600D02*
X020400Y015600D01*
X018900Y010100D02*
X018300Y010100D01*
X018300Y009100D02*
X018900Y009100D01*
X018900Y008100D02*
X018300Y008100D01*
D12*
X038100Y016600D03*
X019600Y024600D03*
X019600Y025600D03*
X019600Y026600D03*
X018600Y026600D03*
X018600Y025600D03*
X018600Y024600D03*
D13*
X023100Y014100D03*
X024100Y014100D03*
X025100Y014100D03*
D14*
X013100Y023616D03*
X013100Y025584D03*
D15*
X013600Y016600D03*
X011600Y016600D03*
X015600Y012600D03*
X015600Y010600D03*
X011100Y010100D03*
X011100Y008100D03*
D16*
X024500Y009100D03*
D17*
X021600Y023600D03*
M02*
